<svg width="326" height="127" viewBox="0 0 326 127" fill="none" xmlns="http://www.w3.org/2000/svg">
<path d="M27.38 121.7C24.44 121.7 21.7333 121.303 19.26 120.51C16.8333 119.67 14.7333 118.503 12.96 117.01C11.1867 115.47 9.78667 113.673 8.76 111.62C8.48 111.06 8.45667 110.523 8.69 110.01C8.97 109.497 9.41333 109.147 10.02 108.96C10.5333 108.773 11.0467 108.797 11.56 109.03C12.0733 109.263 12.47 109.637 12.75 110.15C13.59 111.643 14.6867 112.95 16.04 114.07C17.44 115.19 19.0733 116.053 20.94 116.66C22.8533 117.22 25 117.5 27.38 117.5C30.04 117.5 32.3267 117.057 34.24 116.17C36.2 115.283 37.6933 113.977 38.72 112.25C39.7933 110.523 40.33 108.423 40.33 105.95C40.33 102.87 39.21 100.28 36.97 98.18C34.7767 96.0333 31.4167 94.6567 26.89 94.05C21.6633 93.3033 17.58 91.6233 14.64 89.01C11.7 86.35 10.23 83.13 10.23 79.35C10.23 76.5967 10.9067 74.1933 12.26 72.14C13.66 70.0867 15.5967 68.5 18.07 67.38C20.59 66.2133 23.4833 65.63 26.75 65.63C29.1767 65.63 31.4167 66.0267 33.47 66.82C35.5233 67.6133 37.32 68.6633 38.86 69.97C40.4 71.23 41.59 72.56 42.43 73.96C42.7567 74.4733 42.8267 75.0333 42.64 75.64C42.5 76.2 42.1267 76.5967 41.52 76.83C41.0067 77.0167 40.4933 77.04 39.98 76.9C39.4667 76.7133 39.0467 76.3867 38.72 75.92C38.0667 74.94 37.2267 73.9833 36.2 73.05C35.1733 72.1167 33.89 71.3467 32.35 70.74C30.81 70.1333 28.9433 69.83 26.75 69.83C22.9233 69.83 19.9133 70.6933 17.72 72.42C15.5267 74.1467 14.43 76.5967 14.43 79.77C14.43 81.45 14.8733 82.99 15.76 84.39C16.6933 85.7433 18.14 86.91 20.1 87.89C22.06 88.87 24.5567 89.6167 27.59 90.13C33.61 91.1567 37.9267 93.0233 40.54 95.73C43.2 98.39 44.53 101.797 44.53 105.95C44.53 108.377 44.11 110.57 43.27 112.53C42.4767 114.49 41.31 116.147 39.77 117.5C38.2767 118.853 36.48 119.903 34.38 120.65C32.28 121.35 29.9467 121.7 27.38 121.7ZM58.1488 121C57.5422 121 57.0288 120.813 56.6088 120.44C56.2355 120.02 56.0488 119.507 56.0488 118.9V68.43C56.0488 67.7767 56.2355 67.2633 56.6088 66.89C57.0288 66.5167 57.5422 66.33 58.1488 66.33H72.1488C75.5555 66.33 78.5655 67.0767 81.1788 68.57C83.8388 70.0633 85.9155 72.14 87.4088 74.8C88.9022 77.4133 89.6488 80.4233 89.6488 83.83C89.6488 87.2367 88.9022 90.27 87.4088 92.93C85.9155 95.59 83.8388 97.6667 81.1788 99.16C78.5655 100.653 75.5555 101.4 72.1488 101.4H60.2488V118.9C60.2488 119.507 60.0622 120.02 59.6888 120.44C59.3155 120.813 58.8022 121 58.1488 121ZM60.2488 97.2H72.1488C74.7622 97.2 77.0488 96.64 79.0088 95.52C81.0155 94.3533 82.5788 92.7667 83.6988 90.76C84.8655 88.7533 85.4488 86.4433 85.4488 83.83C85.4488 81.2167 84.8655 78.93 83.6988 76.97C82.5788 74.9633 81.0155 73.4 79.0088 72.28C77.0488 71.1133 74.7622 70.53 72.1488 70.53H60.2488V97.2ZM92.7425 121C91.8558 121 91.2258 120.65 90.8525 119.95C90.5258 119.25 90.5258 118.597 90.8525 117.99L112.063 67.8C112.436 66.82 113.113 66.33 114.093 66.33C115.026 66.33 115.703 66.82 116.123 67.8L137.403 117.99C137.776 118.643 137.753 119.32 137.333 120.02C136.913 120.673 136.306 121 135.513 121C135.046 121 134.649 120.907 134.323 120.72C134.043 120.487 133.786 120.137 133.553 119.67L112.973 70.6H115.213L94.7025 119.67C94.5158 120.137 94.2592 120.487 93.9325 120.72C93.6058 120.907 93.2092 121 92.7425 121ZM97.9225 107.28L99.6025 103.5H128.723L130.333 107.28H97.9225ZM168.734 121.7C165.001 121.7 161.477 120.977 158.164 119.53C154.897 118.037 152.004 116.007 149.484 113.44C146.964 110.827 144.981 107.84 143.534 104.48C142.087 101.073 141.364 97.4567 141.364 93.63C141.364 89.85 142.064 86.28 143.464 82.92C144.864 79.5133 146.801 76.5267 149.274 73.96C151.794 71.3467 154.711 69.3167 158.024 67.87C161.337 66.3767 164.907 65.63 168.734 65.63C171.954 65.63 175.011 66.1433 177.904 67.17C180.797 68.1967 183.504 69.76 186.024 71.86C186.444 72.1867 186.654 72.6533 186.654 73.26C186.654 73.82 186.467 74.3333 186.094 74.8C185.721 75.22 185.207 75.43 184.554 75.43C184.367 75.43 184.181 75.4067 183.994 75.36C183.807 75.2667 183.621 75.1733 183.434 75.08C183.247 74.94 183.037 74.7767 182.804 74.59C180.937 72.91 178.814 71.6967 176.434 70.95C174.054 70.2033 171.487 69.83 168.734 69.83C165.607 69.83 162.644 70.4833 159.844 71.79C157.044 73.05 154.571 74.8 152.424 77.04C150.277 79.2333 148.597 81.7533 147.384 84.6C146.171 87.4467 145.564 90.4567 145.564 93.63C145.564 96.8967 146.171 99.9767 147.384 102.87C148.597 105.763 150.254 108.307 152.354 110.5C154.501 112.693 156.974 114.42 159.774 115.68C162.574 116.893 165.561 117.5 168.734 117.5C171.487 117.5 174.054 117.08 176.434 116.24C178.861 115.4 181.124 114.117 183.224 112.39C183.597 112.063 184.041 111.947 184.554 112.04C185.067 112.133 185.511 112.367 185.884 112.74C186.257 113.113 186.444 113.603 186.444 114.21C186.444 114.49 186.421 114.747 186.374 114.98C186.327 115.213 186.187 115.447 185.954 115.68C183.667 117.967 181.007 119.553 177.974 120.44C174.987 121.28 171.907 121.7 168.734 121.7ZM199.926 121C199.32 121 198.806 120.813 198.386 120.44C198.013 120.02 197.826 119.507 197.826 118.9V68.43C197.826 67.8233 198.013 67.3333 198.386 66.96C198.806 66.54 199.32 66.33 199.926 66.33H233.596C234.156 66.33 234.646 66.54 235.066 66.96C235.486 67.3333 235.696 67.8233 235.696 68.43C235.696 68.99 235.486 69.48 235.066 69.9C234.646 70.32 234.156 70.53 233.596 70.53H202.026V91.53H225.196C225.803 91.53 226.293 91.74 226.666 92.16C227.086 92.5333 227.296 93.0233 227.296 93.63C227.296 94.2367 227.086 94.75 226.666 95.17C226.293 95.59 225.803 95.8 225.196 95.8H202.026V116.8H233.596C234.156 116.8 234.646 117.01 235.066 117.43C235.486 117.85 235.696 118.34 235.696 118.9C235.696 119.507 235.486 120.02 235.066 120.44C234.646 120.813 234.156 121 233.596 121H199.926Z" fill="white"/>
<path d="M21.6 43.48C19.008 43.48 16.576 43 14.304 42.04C12.064 41.048 10.096 39.688 8.4 37.96C6.736 36.2 5.424 34.152 4.464 31.816C3.536 29.48 3.072 26.952 3.072 24.232C3.072 21.544 3.536 19.048 4.464 16.744C5.424 14.408 6.736 12.376 8.4 10.648C10.096 8.888 12.064 7.512 14.304 6.52C16.544 5.528 18.976 5.032 21.6 5.032C24.064 5.032 26.176 5.352 27.936 5.992C29.728 6.632 31.52 7.688 33.312 9.16C33.568 9.352 33.76 9.56 33.888 9.784C34.048 9.976 34.144 10.184 34.176 10.408C34.24 10.6 34.272 10.84 34.272 11.128C34.272 11.736 34.048 12.248 33.6 12.664C33.184 13.048 32.672 13.272 32.064 13.336C31.456 13.368 30.864 13.16 30.288 12.712C29.104 11.688 27.872 10.904 26.592 10.36C25.344 9.816 23.68 9.544 21.6 9.544C19.712 9.544 17.936 9.928 16.272 10.696C14.608 11.464 13.136 12.52 11.856 13.864C10.608 15.208 9.632 16.776 8.928 18.568C8.224 20.328 7.872 22.216 7.872 24.232C7.872 26.28 8.224 28.2 8.928 29.992C9.632 31.752 10.608 33.304 11.856 34.648C13.136 35.992 14.608 37.048 16.272 37.816C17.936 38.552 19.712 38.92 21.6 38.92C23.232 38.92 24.768 38.648 26.208 38.104C27.68 37.528 29.088 36.744 30.432 35.752C31.008 35.336 31.568 35.16 32.112 35.224C32.688 35.256 33.168 35.48 33.552 35.896C33.936 36.28 34.128 36.824 34.128 37.528C34.128 37.848 34.064 38.168 33.936 38.488C33.808 38.776 33.616 39.048 33.36 39.304C31.632 40.68 29.776 41.72 27.792 42.424C25.84 43.128 23.776 43.48 21.6 43.48ZM59.4405 43.48C56.6245 43.48 54.0485 43.016 51.7125 42.088C49.3765 41.128 47.3605 39.8 45.6645 38.104C44.0005 36.376 42.7045 34.344 41.7765 32.008C40.8485 29.64 40.3845 27.048 40.3845 24.232C40.3845 21.416 40.8485 18.84 41.7765 16.504C42.7045 14.168 44.0005 12.152 45.6645 10.456C47.3605 8.728 49.3765 7.4 51.7125 6.472C54.0485 5.512 56.6245 5.032 59.4405 5.032C62.2565 5.032 64.8165 5.512 67.1205 6.472C69.4565 7.4 71.4725 8.728 73.1685 10.456C74.8645 12.152 76.1765 14.168 77.1045 16.504C78.0325 18.84 78.4965 21.416 78.4965 24.232C78.4965 27.048 78.0325 29.64 77.1045 32.008C76.1765 34.344 74.8645 36.376 73.1685 38.104C71.4725 39.8 69.4565 41.128 67.1205 42.088C64.8165 43.016 62.2565 43.48 59.4405 43.48ZM59.4405 38.968C61.5205 38.968 63.4245 38.6 65.1525 37.864C66.9125 37.096 68.4325 36.056 69.7125 34.744C70.9925 33.4 71.9685 31.832 72.6405 30.04C73.3445 28.248 73.6965 26.312 73.6965 24.232C73.6965 22.152 73.3445 20.216 72.6405 18.424C71.9685 16.632 70.9925 15.08 69.7125 13.768C68.4325 12.424 66.9125 11.384 65.1525 10.648C63.4245 9.912 61.5205 9.544 59.4405 9.544C57.3605 9.544 55.4405 9.912 53.6805 10.648C51.9525 11.384 50.4485 12.424 49.1685 13.768C47.9205 15.08 46.9445 16.632 46.2405 18.424C45.5365 20.216 45.1845 22.152 45.1845 24.232C45.1845 26.312 45.5365 28.248 46.2405 30.04C46.9445 31.832 47.9205 33.4 49.1685 34.744C50.4485 36.056 51.9525 37.096 53.6805 37.864C55.4405 38.6 57.3605 38.968 59.4405 38.968ZM93.8149 43C93.2389 43 92.7269 42.824 92.2789 42.472C91.8309 42.12 91.5109 41.64 91.3189 41.032L81.6709 8.968C81.3509 7.912 81.3669 7.08 81.7189 6.472C82.1029 5.832 82.7109 5.512 83.5429 5.512C84.0869 5.512 84.5829 5.672 85.0309 5.992C85.4789 6.28 85.7989 6.744 85.9909 7.384L94.3909 36.664H93.3349L101.111 7.672C101.239 7.192 101.527 6.792 101.975 6.472C102.423 6.152 102.935 5.992 103.511 5.992C104.023 5.992 104.503 6.136 104.951 6.424C105.431 6.68 105.735 7.08 105.863 7.624L113.687 36.664H112.727L121.175 7.144C121.495 6.056 122.311 5.512 123.623 5.512C124.519 5.512 125.095 5.864 125.351 6.568C125.607 7.24 125.607 8.04 125.351 8.968L115.703 40.984C115.479 41.592 115.143 42.088 114.695 42.472C114.279 42.824 113.783 43 113.207 43C112.599 43 112.071 42.808 111.623 42.424C111.207 42.04 110.903 41.576 110.711 41.032L102.983 11.176H104.135L96.3109 40.984C96.0869 41.592 95.7509 42.088 95.3029 42.472C94.8869 42.824 94.3909 43 93.8149 43ZM145.831 43.48C143.015 43.48 140.439 43.016 138.103 42.088C135.767 41.128 133.751 39.8 132.055 38.104C130.391 36.376 129.095 34.344 128.167 32.008C127.239 29.64 126.775 27.048 126.775 24.232C126.775 21.416 127.239 18.84 128.167 16.504C129.095 14.168 130.391 12.152 132.055 10.456C133.751 8.728 135.767 7.4 138.103 6.472C140.439 5.512 143.015 5.032 145.831 5.032C148.647 5.032 151.207 5.512 153.511 6.472C155.847 7.4 157.863 8.728 159.559 10.456C161.255 12.152 162.567 14.168 163.495 16.504C164.423 18.84 164.887 21.416 164.887 24.232C164.887 27.048 164.423 29.64 163.495 32.008C162.567 34.344 161.255 36.376 159.559 38.104C157.863 39.8 155.847 41.128 153.511 42.088C151.207 43.016 148.647 43.48 145.831 43.48ZM145.831 38.968C147.911 38.968 149.815 38.6 151.543 37.864C153.303 37.096 154.823 36.056 156.103 34.744C157.383 33.4 158.359 31.832 159.031 30.04C159.735 28.248 160.087 26.312 160.087 24.232C160.087 22.152 159.735 20.216 159.031 18.424C158.359 16.632 157.383 15.08 156.103 13.768C154.823 12.424 153.303 11.384 151.543 10.648C149.815 9.912 147.911 9.544 145.831 9.544C143.751 9.544 141.831 9.912 140.071 10.648C138.343 11.384 136.839 12.424 135.559 13.768C134.311 15.08 133.335 16.632 132.631 18.424C131.927 20.216 131.575 22.152 131.575 24.232C131.575 26.312 131.927 28.248 132.631 30.04C133.335 31.832 134.311 33.4 135.559 34.744C136.839 36.056 138.343 37.096 140.071 37.864C141.831 38.6 143.751 38.968 145.831 38.968ZM175.202 43C174.498 43 173.906 42.76 173.426 42.28C172.946 41.8 172.706 41.208 172.706 40.504V8.008C172.706 7.272 172.946 6.68 173.426 6.232C173.906 5.752 174.498 5.512 175.202 5.512H183.842C186.242 5.512 188.37 6.024 190.226 7.048C192.082 8.04 193.522 9.416 194.546 11.176C195.602 12.936 196.13 14.984 196.13 17.32C196.13 19.496 195.602 21.432 194.546 23.128C193.522 24.824 192.082 26.152 190.226 27.112C188.37 28.072 186.242 28.552 183.842 28.552H177.698V40.504C177.698 41.208 177.458 41.8 176.978 42.28C176.53 42.76 175.938 43 175.202 43ZM195.122 43C194.674 43 194.258 42.904 193.874 42.712C193.522 42.52 193.218 42.216 192.962 41.8L184.322 27.88L189.17 26.488L197.042 39.16C197.618 40.088 197.698 40.968 197.282 41.8C196.866 42.6 196.146 43 195.122 43ZM177.698 23.944H183.842C185.314 23.944 186.61 23.672 187.73 23.128C188.85 22.552 189.73 21.768 190.37 20.776C191.01 19.752 191.33 18.6 191.33 17.32C191.33 15.912 191.01 14.664 190.37 13.576C189.73 12.488 188.85 11.64 187.73 11.032C186.61 10.424 185.314 10.12 183.842 10.12H177.698V23.944ZM205.53 43C204.858 43 204.266 42.76 203.754 42.28C203.274 41.8 203.034 41.208 203.034 40.504V8.008C203.034 7.304 203.274 6.712 203.754 6.232C204.266 5.752 204.858 5.512 205.53 5.512C206.234 5.512 206.826 5.752 207.306 6.232C207.786 6.712 208.026 7.304 208.026 8.008V22.408L223.914 6.52C224.298 6.136 224.65 5.88 224.97 5.752C225.29 5.592 225.626 5.512 225.978 5.512C226.778 5.512 227.354 5.752 227.706 6.232C228.058 6.712 228.186 7.288 228.09 7.96C227.994 8.6 227.69 9.192 227.178 9.736L214.938 22.024L227.418 39.016C227.802 39.56 227.962 40.152 227.898 40.792C227.834 41.4 227.61 41.928 227.226 42.376C226.842 42.792 226.33 43 225.69 43C224.794 43 224.106 42.648 223.626 41.944L211.482 25.48L208.026 28.936V40.504C208.026 41.208 207.786 41.8 207.306 42.28C206.826 42.76 206.234 43 205.53 43ZM237.546 43C236.842 43 236.25 42.76 235.77 42.28C235.29 41.8 235.05 41.208 235.05 40.504V8.008C235.05 7.272 235.29 6.68 235.77 6.232C236.25 5.752 236.842 5.512 237.546 5.512C238.282 5.512 238.874 5.752 239.322 6.232C239.802 6.68 240.042 7.272 240.042 8.008V40.504C240.042 41.208 239.802 41.8 239.322 42.28C238.874 42.76 238.282 43 237.546 43ZM252.076 43C251.372 43 250.78 42.76 250.3 42.28C249.852 41.8 249.628 41.208 249.628 40.504V8.008C249.628 7.272 249.852 6.68 250.3 6.232C250.78 5.752 251.372 5.512 252.076 5.512C252.844 5.512 253.484 5.816 253.996 6.424L274.924 34.264V8.008C274.924 7.272 275.164 6.68 275.644 6.232C276.124 5.752 276.716 5.512 277.42 5.512C278.156 5.512 278.748 5.752 279.196 6.232C279.644 6.68 279.868 7.272 279.868 8.008V40.504C279.868 41.208 279.644 41.8 279.196 42.28C278.748 42.76 278.156 43 277.42 43C277.1 43 276.748 42.936 276.364 42.808C276.012 42.648 275.724 42.424 275.5 42.136L254.572 14.296V40.504C254.572 41.208 254.332 41.8 253.852 42.28C253.404 42.76 252.812 43 252.076 43ZM306.272 43.48C303.68 43.48 301.248 43 298.976 42.04C296.736 41.048 294.768 39.688 293.072 37.96C291.408 36.2 290.096 34.152 289.136 31.816C288.208 29.48 287.744 26.952 287.744 24.232C287.744 21.544 288.208 19.048 289.136 16.744C290.096 14.408 291.408 12.376 293.072 10.648C294.768 8.888 296.736 7.512 298.976 6.52C301.216 5.528 303.648 5.032 306.272 5.032C308.736 5.032 310.848 5.352 312.608 5.992C314.4 6.632 316.192 7.688 317.984 9.16C318.24 9.352 318.432 9.56 318.56 9.784C318.72 9.976 318.816 10.184 318.848 10.408C318.912 10.6 318.944 10.84 318.944 11.128C318.944 11.736 318.72 12.248 318.272 12.664C317.856 13.08 317.328 13.304 316.688 13.336C316.08 13.368 315.504 13.16 314.96 12.712C313.776 11.688 312.544 10.904 311.264 10.36C310.016 9.816 308.352 9.544 306.272 9.544C304.384 9.544 302.608 9.928 300.944 10.696C299.28 11.464 297.808 12.52 296.528 13.864C295.28 15.208 294.304 16.776 293.6 18.568C292.896 20.328 292.544 22.216 292.544 24.232C292.544 26.28 292.896 28.2 293.6 29.992C294.304 31.752 295.28 33.304 296.528 34.648C297.808 35.992 299.28 37.048 300.944 37.816C302.608 38.552 304.384 38.92 306.272 38.92C307.904 38.92 309.44 38.648 310.88 38.104C312.352 37.528 313.76 36.744 315.104 35.752C315.68 35.336 316.24 35.16 316.784 35.224C317.36 35.256 317.84 35.48 318.224 35.896C318.608 36.28 318.8 36.824 318.8 37.528C318.8 37.848 318.736 38.168 318.608 38.488C318.512 38.776 318.32 39.048 318.032 39.304C316.336 40.712 314.496 41.768 312.512 42.472C310.528 43.144 308.448 43.48 306.272 43.48ZM318.8 37.528L314 36.568V27.976H307.376C306.672 27.976 306.08 27.768 305.6 27.352C305.12 26.936 304.88 26.408 304.88 25.768C304.88 25.128 305.12 24.6 305.6 24.184C306.08 23.768 306.672 23.56 307.376 23.56H316.352C317.088 23.56 317.68 23.8 318.128 24.28C318.576 24.728 318.8 25.32 318.8 26.056V37.528Z" fill="white"/>
<circle cx="60" cy="24" r="6" fill="#E96759"/>
<circle cx="146" cy="24" r="6" fill="#E96759"/>
</svg>
