<svg width="263" height="116" viewBox="0 0 263 116" fill="none" xmlns="http://www.w3.org/2000/svg">
<path d="M20.04 109.6C17.52 109.6 15.2 109.26 13.08 108.58C11 107.86 9.2 106.86 7.68 105.58C6.16 104.26 4.96 102.72 4.08 100.96C3.84 100.48 3.82 100.02 4.02 99.58C4.26 99.14 4.64 98.84 5.16 98.68C5.6 98.52 6.04 98.54 6.48 98.74C6.92 98.94 7.26 99.26 7.5 99.7C8.22 100.98 9.16 102.1 10.32 103.06C11.52 104.02 12.92 104.76 14.52 105.28C16.16 105.76 18 106 20.04 106C22.32 106 24.28 105.62 25.92 104.86C27.6 104.1 28.88 102.98 29.76 101.5C30.68 100.02 31.14 98.22 31.14 96.1C31.14 93.46 30.18 91.24 28.26 89.44C26.38 87.6 23.5 86.42 19.62 85.9C15.14 85.26 11.64 83.82 9.12 81.58C6.6 79.3 5.34 76.54 5.34 73.3C5.34 70.94 5.92 68.88 7.08 67.12C8.28 65.36 9.94 64 12.06 63.04C14.22 62.04 16.7 61.54 19.5 61.54C21.58 61.54 23.5 61.88 25.26 62.56C27.02 63.24 28.56 64.14 29.88 65.26C31.2 66.34 32.22 67.48 32.94 68.68C33.22 69.12 33.28 69.6 33.12 70.12C33 70.6 32.68 70.94 32.16 71.14C31.72 71.3 31.28 71.32 30.84 71.2C30.4 71.04 30.04 70.76 29.76 70.36C29.2 69.52 28.48 68.7 27.6 67.9C26.72 67.1 25.62 66.44 24.3 65.92C22.98 65.4 21.38 65.14 19.5 65.14C16.22 65.14 13.64 65.88 11.76 67.36C9.88 68.84 8.94 70.94 8.94 73.66C8.94 75.1 9.32 76.42 10.08 77.62C10.88 78.78 12.12 79.78 13.8 80.62C15.48 81.46 17.62 82.1 20.22 82.54C25.38 83.42 29.08 85.02 31.32 87.34C33.6 89.62 34.74 92.54 34.74 96.1C34.74 98.18 34.38 100.06 33.66 101.74C32.98 103.42 31.98 104.84 30.66 106C29.38 107.16 27.84 108.06 26.04 108.7C24.24 109.3 22.24 109.6 20.04 109.6ZM55.7109 109C55.1909 109 54.7509 108.84 54.3909 108.52C54.0709 108.16 53.9109 107.72 53.9109 107.2V62.14H57.5109V107.2C57.5109 107.72 57.3309 108.16 56.9709 108.52C56.6509 108.84 56.2309 109 55.7109 109ZM38.7309 65.38C38.2509 65.38 37.8509 65.24 37.5309 64.96C37.2509 64.64 37.1109 64.24 37.1109 63.76C37.1109 63.28 37.2509 62.9 37.5309 62.62C37.8509 62.3 38.2509 62.14 38.7309 62.14H72.6909C73.1709 62.14 73.5509 62.3 73.8309 62.62C74.1509 62.9 74.3109 63.28 74.3109 63.76C74.3109 64.24 74.1509 64.64 73.8309 64.96C73.5509 65.24 73.1709 65.38 72.6909 65.38H38.7309ZM99.2344 109.96C95.7144 109.96 92.5944 109.28 89.8744 107.92C87.1944 106.52 85.0744 104.6 83.5144 102.16C81.9944 99.68 81.2344 96.86 81.2344 93.7V63.94C81.2344 63.38 81.3944 62.94 81.7144 62.62C82.0744 62.3 82.5144 62.14 83.0344 62.14C83.5944 62.14 84.0344 62.3 84.3544 62.62C84.6744 62.94 84.8344 63.38 84.8344 63.94V93.7C84.8344 96.18 85.4344 98.38 86.6344 100.3C87.8744 102.18 89.5744 103.66 91.7344 104.74C93.9344 105.82 96.4344 106.36 99.2344 106.36C102.074 106.36 104.574 105.82 106.734 104.74C108.894 103.66 110.594 102.18 111.834 100.3C113.074 98.38 113.694 96.18 113.694 93.7V63.94C113.694 63.38 113.854 62.94 114.174 62.62C114.534 62.3 114.974 62.14 115.494 62.14C116.054 62.14 116.494 62.3 116.814 62.62C117.134 62.94 117.294 63.38 117.294 63.94V93.7C117.294 96.86 116.514 99.68 114.954 102.16C113.434 104.6 111.314 106.52 108.594 107.92C105.874 109.28 102.754 109.96 99.2344 109.96ZM131.081 109C130.561 109 130.121 108.84 129.761 108.52C129.441 108.16 129.281 107.72 129.281 107.2V63.94C129.281 63.38 129.441 62.94 129.761 62.62C130.121 62.3 130.561 62.14 131.081 62.14H141.881C145.321 62.14 148.461 62.72 151.301 63.88C154.181 65 156.661 66.62 158.741 68.74C160.861 70.82 162.481 73.28 163.601 76.12C164.761 78.96 165.341 82.1 165.341 85.54C165.341 88.98 164.761 92.14 163.601 95.02C162.481 97.86 160.861 100.34 158.741 102.46C156.661 104.54 154.181 106.16 151.301 107.32C148.461 108.44 145.321 109 141.881 109H131.081ZM132.881 105.76H141.881C145.761 105.76 149.181 104.88 152.141 103.12C155.141 101.36 157.481 98.96 159.161 95.92C160.881 92.88 161.741 89.42 161.741 85.54C161.741 81.66 160.881 78.22 159.161 75.22C157.481 72.18 155.141 69.78 152.141 68.02C149.181 66.26 145.761 65.38 141.881 65.38H132.881V105.76ZM176.726 109C176.206 109 175.766 108.84 175.406 108.52C175.086 108.16 174.926 107.72 174.926 107.2V63.94C174.926 63.42 175.086 63 175.406 62.68C175.766 62.32 176.206 62.14 176.726 62.14C177.246 62.14 177.666 62.32 177.986 62.68C178.346 63 178.526 63.42 178.526 63.94V107.2C178.526 107.72 178.346 108.16 177.986 108.52C177.666 108.84 177.246 109 176.726 109ZM212.172 109.6C208.732 109.6 205.552 109 202.632 107.8C199.712 106.6 197.152 104.92 194.952 102.76C192.792 100.56 191.112 98 189.912 95.08C188.712 92.16 188.112 88.98 188.112 85.54C188.112 82.1 188.712 78.94 189.912 76.06C191.112 73.14 192.792 70.6 194.952 68.44C197.152 66.24 199.712 64.54 202.632 63.34C205.552 62.14 208.732 61.54 212.172 61.54C215.612 61.54 218.772 62.14 221.652 63.34C224.572 64.54 227.112 66.24 229.272 68.44C231.472 70.6 233.172 73.14 234.372 76.06C235.572 78.94 236.172 82.1 236.172 85.54C236.172 88.98 235.572 92.16 234.372 95.08C233.172 98 231.472 100.56 229.272 102.76C227.112 104.92 224.572 106.6 221.652 107.8C218.772 109 215.612 109.6 212.172 109.6ZM212.172 106C215.052 106 217.732 105.5 220.212 104.5C222.692 103.46 224.852 102.02 226.692 100.18C228.572 98.3 230.012 96.12 231.012 93.64C232.052 91.16 232.572 88.46 232.572 85.54C232.572 82.66 232.052 79.98 231.012 77.5C230.012 75.02 228.572 72.86 226.692 71.02C224.852 69.14 222.692 67.7 220.212 66.7C217.732 65.66 215.052 65.14 212.172 65.14C209.252 65.14 206.552 65.66 204.072 66.7C201.592 67.7 199.412 69.14 197.532 71.02C195.692 72.86 194.252 75.02 193.212 77.5C192.212 79.98 191.712 82.66 191.712 85.54C191.712 88.46 192.212 91.16 193.212 93.64C194.252 96.12 195.692 98.3 197.532 100.18C199.412 102.02 201.592 103.46 204.072 104.5C206.552 105.5 209.252 106 212.172 106Z" fill="white"/>
<path d="M13.296 43C12.592 43 12 42.76 11.52 42.28C11.04 41.8 10.8 41.208 10.8 40.504V8.008C10.8 7.272 11.04 6.68 11.52 6.232C12 5.752 12.592 5.512 13.296 5.512H22.896C25.296 5.512 27.424 6.04 29.28 7.096C31.136 8.152 32.576 9.624 33.6 11.512C34.656 13.368 35.184 15.512 35.184 17.944C35.184 20.28 34.656 22.36 33.6 24.184C32.576 26.008 31.136 27.432 29.28 28.456C27.424 29.48 25.296 29.992 22.896 29.992H15.792V40.504C15.792 41.208 15.552 41.8 15.072 42.28C14.624 42.76 14.032 43 13.296 43ZM15.792 25.384H22.896C24.368 25.384 25.664 25.064 26.784 24.424C27.904 23.784 28.784 22.904 29.424 21.784C30.064 20.664 30.384 19.384 30.384 17.944C30.384 16.408 30.064 15.064 29.424 13.912C28.784 12.728 27.904 11.8 26.784 11.128C25.664 10.456 24.368 10.12 22.896 10.12H15.792V25.384ZM58.0343 43.48C55.2183 43.48 52.6423 43.016 50.3063 42.088C47.9703 41.128 45.9543 39.8 44.2583 38.104C42.5943 36.376 41.2983 34.344 40.3703 32.008C39.4423 29.64 38.9783 27.048 38.9783 24.232C38.9783 21.416 39.4423 18.84 40.3703 16.504C41.2983 14.168 42.5943 12.152 44.2583 10.456C45.9543 8.728 47.9703 7.4 50.3063 6.472C52.6423 5.512 55.2183 5.032 58.0343 5.032C60.8503 5.032 63.4103 5.512 65.7143 6.472C68.0503 7.4 70.0663 8.728 71.7623 10.456C73.4583 12.152 74.7703 14.168 75.6983 16.504C76.6263 18.84 77.0903 21.416 77.0903 24.232C77.0903 27.048 76.6263 29.64 75.6983 32.008C74.7703 34.344 73.4583 36.376 71.7623 38.104C70.0663 39.8 68.0503 41.128 65.7143 42.088C63.4103 43.016 60.8503 43.48 58.0343 43.48ZM58.0343 38.968C60.1143 38.968 62.0183 38.6 63.7463 37.864C65.5063 37.096 67.0263 36.056 68.3063 34.744C69.5863 33.4 70.5623 31.832 71.2343 30.04C71.9383 28.248 72.2903 26.312 72.2903 24.232C72.2903 22.152 71.9383 20.216 71.2343 18.424C70.5623 16.632 69.5863 15.08 68.3063 13.768C67.0263 12.424 65.5063 11.384 63.7463 10.648C62.0183 9.912 60.1143 9.544 58.0343 9.544C55.9543 9.544 54.0343 9.912 52.2743 10.648C50.5463 11.384 49.0423 12.424 47.7623 13.768C46.5143 15.08 45.5383 16.632 44.8343 18.424C44.1303 20.216 43.7783 22.152 43.7783 24.232C43.7783 26.312 44.1303 28.248 44.8343 30.04C45.5383 31.832 46.5143 33.4 47.7623 34.744C49.0423 36.056 50.5463 37.096 52.2743 37.864C54.0343 38.6 55.9543 38.968 58.0343 38.968ZM87.4054 43C86.7014 43 86.1094 42.76 85.6294 42.28C85.1494 41.8 84.9094 41.208 84.9094 40.504V8.008C84.9094 7.272 85.1494 6.68 85.6294 6.232C86.1094 5.752 86.7014 5.512 87.4054 5.512H96.0934C98.8454 5.512 101.341 5.976 103.581 6.904C105.853 7.8 107.821 9.096 109.485 10.792C111.149 12.456 112.429 14.424 113.325 16.696C114.221 18.968 114.669 21.48 114.669 24.232C114.669 26.984 114.221 29.512 113.325 31.816C112.429 34.088 111.149 36.072 109.485 37.768C107.821 39.432 105.853 40.728 103.581 41.656C101.341 42.552 98.8454 43 96.0934 43H87.4054ZM89.9014 38.584H96.0934C98.7814 38.584 101.149 37.976 103.197 36.76C105.277 35.512 106.909 33.816 108.093 31.672C109.277 29.496 109.869 27.016 109.869 24.232C109.869 21.416 109.277 18.936 108.093 16.792C106.909 14.648 105.277 12.968 103.197 11.752C101.149 10.536 98.7814 9.928 96.0934 9.928H89.9014V38.584ZM138.366 43.48C135.774 43.48 133.342 43 131.07 42.04C128.83 41.048 126.862 39.688 125.166 37.96C123.502 36.2 122.19 34.152 121.23 31.816C120.302 29.48 119.838 26.952 119.838 24.232C119.838 21.544 120.302 19.048 121.23 16.744C122.19 14.408 123.502 12.376 125.166 10.648C126.862 8.888 128.83 7.512 131.07 6.52C133.31 5.528 135.742 5.032 138.366 5.032C140.83 5.032 142.942 5.352 144.702 5.992C146.494 6.632 148.286 7.688 150.078 9.16C150.334 9.352 150.526 9.56 150.654 9.784C150.814 9.976 150.91 10.184 150.942 10.408C151.006 10.6 151.038 10.84 151.038 11.128C151.038 11.736 150.814 12.248 150.366 12.664C149.95 13.048 149.438 13.272 148.83 13.336C148.222 13.368 147.63 13.16 147.054 12.712C145.87 11.688 144.638 10.904 143.358 10.36C142.11 9.816 140.446 9.544 138.366 9.544C136.478 9.544 134.702 9.928 133.038 10.696C131.374 11.464 129.902 12.52 128.622 13.864C127.374 15.208 126.398 16.776 125.694 18.568C124.99 20.328 124.638 22.216 124.638 24.232C124.638 26.28 124.99 28.2 125.694 29.992C126.398 31.752 127.374 33.304 128.622 34.648C129.902 35.992 131.374 37.048 133.038 37.816C134.702 38.552 136.478 38.92 138.366 38.92C139.998 38.92 141.534 38.648 142.974 38.104C144.446 37.528 145.854 36.744 147.198 35.752C147.774 35.336 148.334 35.16 148.878 35.224C149.454 35.256 149.934 35.48 150.318 35.896C150.702 36.28 150.894 36.824 150.894 37.528C150.894 37.848 150.83 38.168 150.702 38.488C150.574 38.776 150.382 39.048 150.126 39.304C148.398 40.68 146.542 41.72 144.558 42.424C142.606 43.128 140.542 43.48 138.366 43.48ZM157.39 43C156.494 43 155.806 42.616 155.326 41.848C154.846 41.08 154.798 40.264 155.182 39.4L168.67 7.192C169.15 6.072 169.934 5.512 171.022 5.512C172.174 5.512 172.958 6.072 173.374 7.192L186.91 39.496C187.262 40.392 187.198 41.208 186.718 41.944C186.27 42.648 185.582 43 184.654 43C184.174 43 183.71 42.872 183.262 42.616C182.846 42.328 182.542 41.944 182.35 41.464L170.446 11.896H171.79L159.694 41.464C159.47 41.976 159.134 42.36 158.686 42.616C158.27 42.872 157.838 43 157.39 43ZM159.934 34.744L161.854 30.616H180.67L182.59 34.744H159.934ZM204.532 43.48C202.484 43.48 200.532 43.16 198.676 42.52C196.82 41.88 195.204 40.984 193.828 39.832C192.452 38.68 191.444 37.352 190.804 35.848C190.484 35.176 190.484 34.552 190.804 33.976C191.156 33.4 191.732 33.032 192.532 32.872C193.108 32.744 193.668 32.84 194.212 33.16C194.788 33.448 195.22 33.896 195.508 34.504C195.892 35.304 196.516 36.04 197.38 36.712C198.276 37.384 199.348 37.928 200.596 38.344C201.844 38.76 203.156 38.968 204.532 38.968C206.068 38.968 207.476 38.728 208.756 38.248C210.068 37.768 211.124 37.08 211.924 36.184C212.724 35.256 213.124 34.12 213.124 32.776C213.124 31.08 212.452 29.56 211.108 28.216C209.796 26.872 207.62 26.04 204.58 25.72C200.612 25.336 197.492 24.168 195.22 22.216C192.948 20.264 191.812 17.848 191.812 14.968C191.812 12.856 192.404 11.064 193.588 9.592C194.772 8.12 196.372 7 198.388 6.232C200.436 5.464 202.708 5.08 205.204 5.08C207.156 5.08 208.852 5.352 210.292 5.896C211.764 6.44 213.044 7.192 214.132 8.152C215.22 9.112 216.164 10.248 216.964 11.56C217.412 12.264 217.588 12.936 217.492 13.576C217.428 14.184 217.124 14.664 216.58 15.016C215.972 15.4 215.316 15.48 214.612 15.256C213.908 15.032 213.38 14.616 213.028 14.008C212.516 13.08 211.892 12.296 211.156 11.656C210.42 11.016 209.556 10.52 208.564 10.168C207.572 9.784 206.404 9.592 205.06 9.592C202.692 9.56 200.708 10.008 199.108 10.936C197.508 11.832 196.708 13.224 196.708 15.112C196.708 16.072 196.948 17 197.428 17.896C197.94 18.76 198.852 19.512 200.164 20.152C201.508 20.792 203.428 21.24 205.924 21.496C209.732 21.88 212.692 23.048 214.804 25C216.948 26.92 218.02 29.464 218.02 32.632C218.02 34.456 217.636 36.04 216.868 37.384C216.132 38.728 215.124 39.864 213.844 40.792C212.596 41.688 211.156 42.36 209.524 42.808C207.924 43.256 206.26 43.48 204.532 43.48ZM234.841 43C234.137 43 233.545 42.76 233.065 42.28C232.585 41.8 232.345 41.208 232.345 40.504V5.512H237.337V40.504C237.337 41.208 237.097 41.8 236.617 42.28C236.137 42.76 235.545 43 234.841 43ZM221.977 10.12C221.305 10.12 220.745 9.912 220.297 9.496C219.881 9.048 219.673 8.488 219.673 7.816C219.673 7.144 219.881 6.6 220.297 6.184C220.745 5.736 221.305 5.512 221.977 5.512H247.657C248.329 5.512 248.873 5.736 249.289 6.184C249.737 6.6 249.961 7.144 249.961 7.816C249.961 8.488 249.737 9.048 249.289 9.496C248.873 9.912 248.329 10.12 247.657 10.12H221.977Z" fill="white"/>
<circle cx="58" cy="23" r="6" fill="#E96759"/>
<circle cx="212" cy="86" r="6" fill="#E96759"/>
</svg>
