<svg width="247" height="127" viewBox="0 0 247 127" fill="none" xmlns="http://www.w3.org/2000/svg">
<path d="M9.1 118C8.49333 118 7.98 117.813 7.56 117.44C7.18667 117.02 7 116.507 7 115.9V65.43C7 64.7767 7.18667 64.2633 7.56 63.89C7.98 63.5167 8.49333 63.33 9.1 63.33H22.47C25.8767 63.33 28.8867 64.0533 31.5 65.5C34.16 66.9 36.2367 68.8367 37.73 71.31C39.2233 73.7833 39.97 76.6533 39.97 79.92C39.97 83.0933 39.2233 85.9167 37.73 88.39C36.2367 90.8633 34.16 92.8 31.5 94.2C28.8867 95.6 25.8767 96.3 22.47 96.3H11.2V115.9C11.2 116.507 11.0133 117.02 10.64 117.44C10.2667 117.813 9.75333 118 9.1 118ZM38.5 118C37.9867 118 37.59 117.907 37.31 117.72C37.0767 117.487 36.8433 117.207 36.61 116.88L22.68 94.62L27.02 93.64L40.25 114.78C40.8567 115.713 40.9733 116.483 40.6 117.09C40.2733 117.697 39.5733 118 38.5 118ZM11.2 92.1H22.47C25.0833 92.1 27.37 91.5867 29.33 90.56C31.3367 89.4867 32.9 88.04 34.02 86.22C35.1867 84.4 35.77 82.3 35.77 79.92C35.77 77.4933 35.1867 75.3467 34.02 73.48C32.9 71.6133 31.3367 70.1667 29.33 69.14C27.37 68.0667 25.0833 67.53 22.47 67.53H11.2V92.1ZM74.8579 118.7C70.8446 118.7 67.1346 118 63.7279 116.6C60.3212 115.2 57.3346 113.24 54.7679 110.72C52.2479 108.153 50.2879 105.167 48.8879 101.76C47.4879 98.3533 46.7879 94.6433 46.7879 90.63C46.7879 86.6167 47.4879 82.93 48.8879 79.57C50.2879 76.1633 52.2479 73.2 54.7679 70.68C57.3346 68.1133 60.3212 66.13 63.7279 64.73C67.1346 63.33 70.8446 62.63 74.8579 62.63C78.8712 62.63 82.5579 63.33 85.9179 64.73C89.3246 66.13 92.2879 68.1133 94.8079 70.68C97.3746 73.2 99.3579 76.1633 100.758 79.57C102.158 82.93 102.858 86.6167 102.858 90.63C102.858 94.6433 102.158 98.3533 100.758 101.76C99.3579 105.167 97.3746 108.153 94.8079 110.72C92.2879 113.24 89.3246 115.2 85.9179 116.6C82.5579 118 78.8712 118.7 74.8579 118.7ZM74.8579 114.5C78.2179 114.5 81.3446 113.917 84.2379 112.75C87.1312 111.537 89.6512 109.857 91.7979 107.71C93.9912 105.517 95.6712 102.973 96.8379 100.08C98.0512 97.1867 98.6579 94.0367 98.6579 90.63C98.6579 87.27 98.0512 84.1433 96.8379 81.25C95.6712 78.3567 93.9912 75.8367 91.7979 73.69C89.6512 71.4967 87.1312 69.8167 84.2379 68.65C81.3446 67.4367 78.2179 66.83 74.8579 66.83C71.4512 66.83 68.3012 67.4367 65.4079 68.65C62.5146 69.8167 59.9712 71.4967 57.7779 73.69C55.6312 75.8367 53.9512 78.3567 52.7379 81.25C51.5712 84.1433 50.9879 87.27 50.9879 90.63C50.9879 94.0367 51.5712 97.1867 52.7379 100.08C53.9512 102.973 55.6312 105.517 57.7779 107.71C59.9712 109.857 62.5146 111.537 65.4079 112.75C68.3012 113.917 71.4512 114.5 74.8579 114.5ZM137.954 118.7C133.94 118.7 130.23 118 126.824 116.6C123.417 115.2 120.43 113.24 117.864 110.72C115.344 108.153 113.384 105.167 111.984 101.76C110.584 98.3533 109.884 94.6433 109.884 90.63C109.884 86.6167 110.584 82.93 111.984 79.57C113.384 76.1633 115.344 73.2 117.864 70.68C120.43 68.1133 123.417 66.13 126.824 64.73C130.23 63.33 133.94 62.63 137.954 62.63C141.967 62.63 145.654 63.33 149.014 64.73C152.42 66.13 155.384 68.1133 157.904 70.68C160.47 73.2 162.454 76.1633 163.854 79.57C165.254 82.93 165.954 86.6167 165.954 90.63C165.954 94.6433 165.254 98.3533 163.854 101.76C162.454 105.167 160.47 108.153 157.904 110.72C155.384 113.24 152.42 115.2 149.014 116.6C145.654 118 141.967 118.7 137.954 118.7ZM137.954 114.5C141.314 114.5 144.44 113.917 147.334 112.75C150.227 111.537 152.747 109.857 154.894 107.71C157.087 105.517 158.767 102.973 159.934 100.08C161.147 97.1867 161.754 94.0367 161.754 90.63C161.754 87.27 161.147 84.1433 159.934 81.25C158.767 78.3567 157.087 75.8367 154.894 73.69C152.747 71.4967 150.227 69.8167 147.334 68.65C144.44 67.4367 141.314 66.83 137.954 66.83C134.547 66.83 131.397 67.4367 128.504 68.65C125.61 69.8167 123.067 71.4967 120.874 73.69C118.727 75.8367 117.047 78.3567 115.834 81.25C114.667 84.1433 114.084 87.27 114.084 90.63C114.084 94.0367 114.667 97.1867 115.834 100.08C117.047 102.973 118.727 105.517 120.874 107.71C123.067 109.857 125.61 111.537 128.504 112.75C131.397 113.917 134.547 114.5 137.954 114.5ZM179.246 118C178.64 118 178.126 117.813 177.706 117.44C177.333 117.02 177.146 116.507 177.146 115.9V65.43C177.146 64.8233 177.333 64.3333 177.706 63.96C178.126 63.54 178.64 63.33 179.246 63.33C180.18 63.33 180.81 63.68 181.136 64.38L205.916 113.31H203.466L227.896 64.38C228.316 63.68 228.946 63.33 229.786 63.33C230.393 63.33 230.883 63.54 231.256 63.96C231.63 64.3333 231.816 64.8233 231.816 65.43V115.9C231.816 116.507 231.63 117.02 231.256 117.44C230.883 117.813 230.393 118 229.786 118C229.18 118 228.666 117.813 228.246 117.44C227.826 117.02 227.616 116.507 227.616 115.9V70.47L228.666 70.82L206.336 116.32C206.01 116.973 205.403 117.3 204.516 117.3C203.676 117.3 203.023 116.857 202.556 115.97L179.946 70.82L181.346 70.47V115.9C181.346 116.507 181.136 117.02 180.716 117.44C180.343 117.813 179.853 118 179.246 118Z" fill="white"/>
<path d="M9.296 43C8.592 43 8 42.76 7.52 42.28C7.04 41.8 6.8 41.208 6.8 40.504V8.008C6.8 7.272 7.04 6.68 7.52 6.232C8 5.752 8.592 5.512 9.296 5.512C10.256 5.512 10.992 5.96 11.504 6.856L26.528 36.952H24.992L39.632 6.856C40.144 5.96 40.88 5.512 41.84 5.512C42.544 5.512 43.136 5.752 43.616 6.232C44.096 6.68 44.336 7.272 44.336 8.008V40.504C44.336 41.208 44.08 41.8 43.568 42.28C43.088 42.76 42.512 43 41.84 43C41.136 43 40.544 42.76 40.064 42.28C39.584 41.8 39.344 41.208 39.344 40.504V14.92L40.304 14.68L27.728 40.312C27.184 41.144 26.464 41.56 25.568 41.56C24.512 41.56 23.744 41.064 23.264 40.072L10.832 15.16L11.792 14.92V40.504C11.792 41.208 11.552 41.8 11.072 42.28C10.592 42.76 10 43 9.296 43ZM56.4523 43C55.7483 43 55.1563 42.76 54.6763 42.28C54.1963 41.8 53.9563 41.208 53.9563 40.504V8.008C53.9563 7.272 54.1963 6.68 54.6763 6.232C55.1563 5.752 55.7483 5.512 56.4523 5.512H78.1483C78.8843 5.512 79.4763 5.736 79.9243 6.184C80.3723 6.6 80.5963 7.16 80.5963 7.864C80.5963 8.536 80.3723 9.08 79.9243 9.496C79.4763 9.912 78.8843 10.12 78.1483 10.12H58.9483V21.784H72.7243C73.4603 21.784 74.0522 22.008 74.5002 22.456C74.9483 22.872 75.1723 23.416 75.1723 24.088C75.1723 24.76 74.9483 25.32 74.5002 25.768C74.0522 26.184 73.4603 26.392 72.7243 26.392H58.9483V38.392H78.1483C78.8843 38.392 79.4763 38.6 79.9243 39.016C80.3723 39.432 80.5963 39.976 80.5963 40.648C80.5963 41.352 80.3723 41.928 79.9243 42.376C79.4763 42.792 78.8843 43 78.1483 43H56.4523ZM90.0616 43C89.3576 43 88.7656 42.76 88.2856 42.28C87.8056 41.8 87.5656 41.208 87.5656 40.504V8.008C87.5656 7.272 87.8056 6.68 88.2856 6.232C88.7656 5.752 89.3576 5.512 90.0616 5.512H111.758C112.494 5.512 113.086 5.736 113.534 6.184C113.982 6.6 114.206 7.16 114.206 7.864C114.206 8.536 113.982 9.08 113.534 9.496C113.086 9.912 112.494 10.12 111.758 10.12H92.5576V21.784H106.334C107.07 21.784 107.662 22.008 108.11 22.456C108.558 22.872 108.782 23.416 108.782 24.088C108.782 24.76 108.558 25.32 108.11 25.768C107.662 26.184 107.07 26.392 106.334 26.392H92.5576V38.392H111.758C112.494 38.392 113.086 38.6 113.534 39.016C113.982 39.432 114.206 39.976 114.206 40.648C114.206 41.352 113.982 41.928 113.534 42.376C113.086 42.792 112.494 43 111.758 43H90.0616ZM132.263 43C131.559 43 130.967 42.76 130.487 42.28C130.007 41.8 129.767 41.208 129.767 40.504V5.512H134.759V40.504C134.759 41.208 134.519 41.8 134.039 42.28C133.559 42.76 132.967 43 132.263 43ZM119.399 10.12C118.727 10.12 118.167 9.912 117.719 9.496C117.303 9.048 117.095 8.488 117.095 7.816C117.095 7.144 117.303 6.6 117.719 6.184C118.167 5.736 118.727 5.512 119.399 5.512H145.079C145.751 5.512 146.295 5.736 146.711 6.184C147.159 6.6 147.383 7.144 147.383 7.816C147.383 8.488 147.159 9.048 146.711 9.496C146.295 9.912 145.751 10.12 145.079 10.12H119.399ZM155.405 43C154.701 43 154.109 42.76 153.629 42.28C153.149 41.8 152.909 41.208 152.909 40.504V8.008C152.909 7.272 153.149 6.68 153.629 6.232C154.109 5.752 154.701 5.512 155.405 5.512C156.141 5.512 156.733 5.752 157.181 6.232C157.661 6.68 157.901 7.272 157.901 8.008V40.504C157.901 41.208 157.661 41.8 157.181 42.28C156.733 42.76 156.141 43 155.405 43ZM169.936 43C169.232 43 168.64 42.76 168.16 42.28C167.712 41.8 167.488 41.208 167.488 40.504V8.008C167.488 7.272 167.712 6.68 168.16 6.232C168.64 5.752 169.232 5.512 169.936 5.512C170.704 5.512 171.344 5.816 171.856 6.424L192.784 34.264V8.008C192.784 7.272 193.024 6.68 193.504 6.232C193.984 5.752 194.576 5.512 195.28 5.512C196.016 5.512 196.608 5.752 197.056 6.232C197.504 6.68 197.728 7.272 197.728 8.008V40.504C197.728 41.208 197.504 41.8 197.056 42.28C196.608 42.76 196.016 43 195.28 43C194.96 43 194.608 42.936 194.224 42.808C193.872 42.648 193.584 42.424 193.36 42.136L172.432 14.296V40.504C172.432 41.208 172.192 41.8 171.712 42.28C171.264 42.76 170.672 43 169.936 43ZM224.131 43.48C221.539 43.48 219.107 43 216.835 42.04C214.595 41.048 212.627 39.688 210.931 37.96C209.267 36.2 207.955 34.152 206.995 31.816C206.067 29.48 205.603 26.952 205.603 24.232C205.603 21.544 206.067 19.048 206.995 16.744C207.955 14.408 209.267 12.376 210.931 10.648C212.627 8.888 214.595 7.512 216.835 6.52C219.075 5.528 221.507 5.032 224.131 5.032C226.595 5.032 228.707 5.352 230.467 5.992C232.259 6.632 234.051 7.688 235.843 9.16C236.099 9.352 236.291 9.56 236.419 9.784C236.579 9.976 236.675 10.184 236.707 10.408C236.771 10.6 236.803 10.84 236.803 11.128C236.803 11.736 236.579 12.248 236.131 12.664C235.715 13.08 235.187 13.304 234.547 13.336C233.939 13.368 233.363 13.16 232.819 12.712C231.635 11.688 230.403 10.904 229.123 10.36C227.875 9.816 226.211 9.544 224.131 9.544C222.243 9.544 220.467 9.928 218.803 10.696C217.139 11.464 215.667 12.52 214.387 13.864C213.139 15.208 212.163 16.776 211.459 18.568C210.755 20.328 210.403 22.216 210.403 24.232C210.403 26.28 210.755 28.2 211.459 29.992C212.163 31.752 213.139 33.304 214.387 34.648C215.667 35.992 217.139 37.048 218.803 37.816C220.467 38.552 222.243 38.92 224.131 38.92C225.763 38.92 227.299 38.648 228.739 38.104C230.211 37.528 231.619 36.744 232.963 35.752C233.539 35.336 234.099 35.16 234.643 35.224C235.219 35.256 235.699 35.48 236.083 35.896C236.467 36.28 236.659 36.824 236.659 37.528C236.659 37.848 236.595 38.168 236.467 38.488C236.371 38.776 236.179 39.048 235.891 39.304C234.195 40.712 232.355 41.768 230.371 42.472C228.387 43.144 226.307 43.48 224.131 43.48ZM236.659 37.528L231.859 36.568V27.976H225.235C224.531 27.976 223.939 27.768 223.459 27.352C222.979 26.936 222.739 26.408 222.739 25.768C222.739 25.128 222.979 24.6 223.459 24.184C223.939 23.768 224.531 23.56 225.235 23.56H234.211C234.947 23.56 235.539 23.8 235.987 24.28C236.435 24.728 236.659 25.32 236.659 26.056V37.528Z" fill="white"/>
<circle cx="75" cy="90" r="7" fill="#E96759"/>
<circle cx="137" cy="90" r="7" fill="#E96759"/>
</svg>
