<?xml version="1.0" encoding="utf-8"?>
<!-- Generator: Adobe Illustrator 25.2.0, SVG Export Plug-In . SVG Version: 6.00 Build 0)  -->
<svg version="1.1" id="Layer_1" xmlns="http://www.w3.org/2000/svg" xmlns:xlink="http://www.w3.org/1999/xlink" x="0px" y="0px"
	 viewBox="0 0 397 122" style="enable-background:new 0 0 397 122;" xml:space="preserve">
<style type="text/css">
	.st0{fill:#FFFFFF;}
	.st1{fill:#E96759;}
</style>
<path class="st0" d="M23.4,120.7c-2.9,0-5.6-0.4-8.1-1.2c-2.4-0.8-4.5-2-6.3-3.5c-1.8-1.5-3.2-3.3-4.2-5.4c-0.3-0.6-0.3-1.1-0.1-1.6
	c0.3-0.5,0.7-0.9,1.3-1.1c0.5-0.2,1-0.2,1.5,0.1s0.9,0.6,1.2,1.1c0.8,1.5,1.9,2.8,3.3,3.9c1.4,1.1,3,2,4.9,2.6
	c1.9,0.6,4.1,0.8,6.4,0.8c2.7,0,4.9-0.4,6.9-1.3c2-0.9,3.5-2.2,4.5-3.9c1.1-1.7,1.6-3.8,1.6-6.3c0-3.1-1.1-5.7-3.4-7.8
	c-2.2-2.1-5.6-3.5-10.1-4.1c-5.2-0.7-9.3-2.4-12.2-5c-2.9-2.7-4.4-5.9-4.4-9.7c0-2.8,0.7-5.2,2-7.2c1.4-2.1,3.3-3.6,5.8-4.8
	c2.5-1.2,5.4-1.8,8.7-1.8c2.4,0,4.7,0.4,6.7,1.2s3.9,1.8,5.4,3.2c1.5,1.3,2.7,2.6,3.6,4c0.3,0.5,0.4,1.1,0.2,1.7
	c-0.1,0.6-0.5,1-1.1,1.2C37,76,36.5,76,36,75.9c-0.5-0.2-0.9-0.5-1.3-1c-0.7-1-1.5-1.9-2.5-2.9c-1-0.9-2.3-1.7-3.9-2.3
	c-1.5-0.6-3.4-0.9-5.6-0.9c-3.8,0-6.8,0.9-9,2.6s-3.3,4.2-3.3,7.3c0,1.7,0.4,3.2,1.3,4.6c0.9,1.4,2.4,2.5,4.3,3.5
	c2,1,4.5,1.7,7.5,2.2c6,1,10.3,2.9,13,5.6c2.7,2.7,4,6.1,4,10.2c0,2.4-0.4,4.6-1.3,6.6c-0.8,2-2,3.6-3.5,5c-1.5,1.4-3.3,2.4-5.4,3.2
	C28.3,120.3,25.9,120.7,23.4,120.7z M65,120c-0.6,0-1.1-0.2-1.5-0.6c-0.4-0.4-0.6-0.9-0.6-1.5V65.3h4.2v52.6c0,0.6-0.2,1.1-0.6,1.5
	C66.1,119.8,65.6,120,65,120z M45.2,69.1c-0.6,0-1-0.2-1.4-0.5c-0.3-0.4-0.5-0.8-0.5-1.4s0.2-1,0.5-1.3c0.4-0.4,0.8-0.6,1.4-0.6
	h39.6c0.6,0,1,0.2,1.3,0.6c0.4,0.3,0.6,0.8,0.6,1.3s-0.2,1-0.6,1.4c-0.3,0.3-0.8,0.5-1.3,0.5H45.2z M115.8,121.1
	c-4.1,0-7.7-0.8-10.9-2.4c-3.1-1.6-5.6-3.9-7.4-6.7c-1.8-2.9-2.7-6.2-2.7-9.9V67.4c0-0.7,0.2-1.2,0.6-1.5c0.4-0.4,0.9-0.6,1.5-0.6
	c0.7,0,1.2,0.2,1.5,0.6c0.4,0.4,0.6,0.9,0.6,1.5v34.7c0,2.9,0.7,5.5,2.1,7.7c1.4,2.2,3.4,3.9,6,5.2c2.6,1.3,5.5,1.9,8.8,1.9
	c3.3,0,6.2-0.6,8.8-1.9c2.5-1.3,4.5-3,6-5.2c1.4-2.2,2.2-4.8,2.2-7.7V67.4c0-0.7,0.2-1.2,0.6-1.5c0.4-0.4,0.9-0.6,1.5-0.6
	c0.7,0,1.2,0.2,1.5,0.6c0.4,0.4,0.6,0.9,0.6,1.5v34.7c0,3.7-0.9,7-2.7,9.9c-1.8,2.8-4.2,5.1-7.4,6.7
	C123.5,120.3,119.9,121.1,115.8,121.1z M152.9,120c-0.6,0-1.1-0.2-1.5-0.6c-0.4-0.4-0.6-0.9-0.6-1.5V67.4c0-0.7,0.2-1.2,0.6-1.5
	c0.4-0.4,0.9-0.6,1.5-0.6h12.6c4,0,7.7,0.7,11,2c3.4,1.3,6.3,3.2,8.7,5.7c2.5,2.4,4.4,5.3,5.7,8.6c1.4,3.3,2,7,2,11
	c0,4-0.7,7.7-2,11.1c-1.3,3.3-3.2,6.2-5.7,8.7c-2.4,2.4-5.3,4.3-8.7,5.7c-3.3,1.3-7,2-11,2H152.9z M155,116.2h10.5
	c4.5,0,8.5-1,12-3.1c3.5-2.1,6.2-4.9,8.2-8.4c2-3.5,3-7.6,3-12.1c0-4.5-1-8.5-3-12c-2-3.5-4.7-6.3-8.2-8.4c-3.5-2.1-7.4-3.1-12-3.1
	H155V116.2z M206.2,120c-0.6,0-1.1-0.2-1.5-0.6c-0.4-0.4-0.6-0.9-0.6-1.5V67.4c0-0.6,0.2-1.1,0.6-1.5c0.4-0.4,0.9-0.6,1.5-0.6
	c0.6,0,1.1,0.2,1.5,0.6c0.4,0.4,0.6,0.9,0.6,1.5v50.5c0,0.6-0.2,1.1-0.6,1.5C207.3,119.8,206.8,120,206.2,120z M247.5,120.7
	c-4,0-7.7-0.7-11.1-2.1c-3.4-1.4-6.4-3.4-9-5.9c-2.5-2.6-4.5-5.6-5.9-9c-1.4-3.4-2.1-7.1-2.1-11.1c0-4,0.7-7.7,2.1-11.1
	c1.4-3.4,3.4-6.4,5.9-8.9c2.6-2.6,5.6-4.6,9-5.9c3.4-1.4,7.1-2.1,11.1-2.1c4,0,7.7,0.7,11.1,2.1c3.4,1.4,6.4,3.4,8.9,5.9
	c2.6,2.5,4.5,5.5,5.9,8.9c1.4,3.4,2.1,7,2.1,11.1c0,4-0.7,7.7-2.1,11.1c-1.4,3.4-3.4,6.4-5.9,9c-2.5,2.5-5.5,4.5-8.9,5.9
	C255.2,120,251.5,120.7,247.5,120.7z M247.5,116.5c3.4,0,6.5-0.6,9.4-1.8c2.9-1.2,5.4-2.9,7.6-5c2.2-2.2,3.9-4.7,5-7.6
	c1.2-2.9,1.8-6,1.8-9.5c0-3.4-0.6-6.5-1.8-9.4c-1.2-2.9-2.8-5.4-5-7.6c-2.1-2.2-4.7-3.9-7.6-5c-2.9-1.2-6-1.8-9.4-1.8
	c-3.4,0-6.6,0.6-9.4,1.8c-2.9,1.2-5.4,2.8-7.6,5c-2.1,2.1-3.8,4.7-5,7.6c-1.2,2.9-1.8,6-1.8,9.4c0,3.4,0.6,6.6,1.8,9.5
	c1.2,2.9,2.9,5.4,5,7.6c2.2,2.1,4.7,3.8,7.6,5C241,115.9,244.1,116.5,247.5,116.5z"/>
<path class="st0" d="M7.3,43c-0.7,0-1.3-0.2-1.8-0.7s-0.7-1.1-0.7-1.8V8c0-0.7,0.2-1.3,0.7-1.8C6,5.8,6.6,5.5,7.3,5.5h9.6
	c2.4,0,4.5,0.5,6.4,1.6c1.9,1.1,3.3,2.5,4.3,4.4c1.1,1.9,1.6,4,1.6,6.4c0,2.3-0.5,4.4-1.6,6.2c-1,1.8-2.5,3.2-4.3,4.3
	c-1.9,1-4,1.5-6.4,1.5H9.8v10.5c0,0.7-0.2,1.3-0.7,1.8C8.6,42.8,8,43,7.3,43z M9.8,25.4h7.1c1.5,0,2.8-0.3,3.9-1
	c1.1-0.6,2-1.5,2.6-2.6c0.6-1.1,1-2.4,1-3.8c0-1.5-0.3-2.9-1-4c-0.6-1.2-1.5-2.1-2.6-2.8c-1.1-0.7-2.4-1-3.9-1H9.8V25.4z M37.2,43
	c-0.7,0-1.3-0.2-1.8-0.7s-0.7-1.1-0.7-1.8V8c0-0.7,0.2-1.3,0.7-1.8c0.5-0.5,1.1-0.7,1.8-0.7c0.7,0,1.3,0.2,1.8,0.7
	c0.5,0.4,0.7,1,0.7,1.8v13.8H62V8c0-0.7,0.2-1.3,0.7-1.8c0.5-0.5,1.1-0.7,1.8-0.7c0.7,0,1.3,0.2,1.8,0.7c0.4,0.4,0.7,1,0.7,1.8v32.5
	c0,0.7-0.2,1.3-0.7,1.8c-0.4,0.5-1,0.7-1.8,0.7c-0.7,0-1.3-0.2-1.8-0.7S62,41.2,62,40.5V26.2H39.7v14.3c0,0.7-0.2,1.3-0.7,1.8
	C38.5,42.8,37.9,43,37.2,43z M93.8,43.5c-2.8,0-5.4-0.5-7.7-1.4c-2.3-1-4.4-2.3-6-4c-1.7-1.7-3-3.8-3.9-6.1c-0.9-2.4-1.4-5-1.4-7.8
	s0.5-5.4,1.4-7.7s2.2-4.4,3.9-6c1.7-1.7,3.7-3.1,6-4C88.5,5.5,91,5,93.8,5s5.4,0.5,7.7,1.4c2.3,0.9,4.4,2.3,6,4c1.7,1.7,3,3.7,3.9,6
	s1.4,4.9,1.4,7.7s-0.5,5.4-1.4,7.8c-0.9,2.3-2.2,4.4-3.9,6.1c-1.7,1.7-3.7,3-6,4C99.2,43,96.7,43.5,93.8,43.5z M93.8,39
	c2.1,0,4-0.4,5.7-1.1c1.8-0.8,3.3-1.8,4.6-3.1c1.3-1.3,2.3-2.9,2.9-4.7c0.7-1.8,1.1-3.7,1.1-5.8s-0.4-4-1.1-5.8
	c-0.7-1.8-1.6-3.3-2.9-4.7c-1.3-1.3-2.8-2.4-4.6-3.1c-1.7-0.7-3.6-1.1-5.7-1.1s-4,0.4-5.8,1.1c-1.7,0.7-3.2,1.8-4.5,3.1
	c-1.2,1.3-2.2,2.9-2.9,4.7c-0.7,1.8-1.1,3.7-1.1,5.8s0.4,4,1.1,5.8c0.7,1.8,1.7,3.4,2.9,4.7c1.3,1.3,2.8,2.4,4.5,3.1
	C89.8,38.6,91.8,39,93.8,39z M129,43c-0.7,0-1.3-0.2-1.8-0.7c-0.5-0.5-0.7-1.1-0.7-1.8v-35h5v35c0,0.7-0.2,1.3-0.7,1.8
	C130.2,42.8,129.7,43,129,43z M116.1,10.1c-0.7,0-1.2-0.2-1.7-0.6c-0.4-0.4-0.6-1-0.6-1.7s0.2-1.2,0.6-1.6c0.4-0.4,1-0.7,1.7-0.7
	h25.7c0.7,0,1.2,0.2,1.6,0.7c0.4,0.4,0.7,1,0.7,1.6s-0.2,1.2-0.7,1.7c-0.4,0.4-1,0.6-1.6,0.6H116.1z M164.5,43.5
	c-2.8,0-5.4-0.5-7.7-1.4c-2.3-1-4.4-2.3-6-4c-1.7-1.7-3-3.8-3.9-6.1c-0.9-2.4-1.4-5-1.4-7.8s0.5-5.4,1.4-7.7c0.9-2.3,2.2-4.4,3.9-6
	c1.7-1.7,3.7-3.1,6-4c2.3-1,4.9-1.4,7.7-1.4c2.8,0,5.4,0.5,7.7,1.4c2.3,0.9,4.4,2.3,6,4c1.7,1.7,3,3.7,3.9,6
	c0.9,2.3,1.4,4.9,1.4,7.7s-0.5,5.4-1.4,7.8c-0.9,2.3-2.2,4.4-3.9,6.1c-1.7,1.7-3.7,3-6,4C169.9,43,167.4,43.5,164.5,43.5z M164.5,39
	c2.1,0,4-0.4,5.7-1.1c1.8-0.8,3.3-1.8,4.6-3.1c1.3-1.3,2.3-2.9,2.9-4.7c0.7-1.8,1.1-3.7,1.1-5.8s-0.4-4-1.1-5.8
	c-0.7-1.8-1.6-3.3-2.9-4.7c-1.3-1.3-2.8-2.4-4.6-3.1c-1.7-0.7-3.6-1.1-5.7-1.1s-4,0.4-5.8,1.1c-1.7,0.7-3.2,1.8-4.5,3.1
	c-1.2,1.3-2.2,2.9-2.9,4.7s-1.1,3.7-1.1,5.8s0.4,4,1.1,5.8c0.7,1.8,1.7,3.4,2.9,4.7c1.3,1.3,2.8,2.4,4.5,3.1
	C160.5,38.6,162.5,39,164.5,39z M207.3,43.5c-2.6,0-5-0.5-7.3-1.4c-2.2-1-4.2-2.4-5.9-4.1c-1.7-1.8-3-3.8-3.9-6.1
	c-0.9-2.3-1.4-4.9-1.4-7.6c0-2.7,0.5-5.2,1.4-7.5c1-2.3,2.3-4.4,3.9-6.1c1.7-1.8,3.7-3.1,5.9-4.1s4.7-1.5,7.3-1.5
	c2.5,0,4.6,0.3,6.3,1c1.8,0.6,3.6,1.7,5.4,3.2c0.3,0.2,0.4,0.4,0.6,0.6c0.2,0.2,0.3,0.4,0.3,0.6c0.1,0.2,0.1,0.4,0.1,0.7
	c0,0.6-0.2,1.1-0.7,1.5c-0.4,0.4-0.9,0.6-1.6,0.7c-0.6,0-1.2-0.2-1.7-0.6c-1.2-1-2.4-1.8-3.7-2.4c-1.2-0.5-2.9-0.8-5-0.8
	c-1.9,0-3.7,0.4-5.3,1.2s-3.1,1.8-4.4,3.2c-1.2,1.3-2.2,2.9-2.9,4.7c-0.7,1.8-1.1,3.6-1.1,5.7c0,2,0.4,4,1.1,5.8
	c0.7,1.8,1.7,3.3,2.9,4.7c1.3,1.3,2.8,2.4,4.4,3.2c1.7,0.7,3.4,1.1,5.3,1.1c1.6,0,3.2-0.3,4.6-0.8c1.5-0.6,2.9-1.4,4.2-2.4
	c0.6-0.4,1.1-0.6,1.7-0.5c0.6,0,1.1,0.3,1.4,0.7c0.4,0.4,0.6,0.9,0.6,1.6c0,0.3-0.1,0.6-0.2,1c-0.1,0.3-0.3,0.6-0.6,0.8
	c-1.7,1.4-3.5,2.5-5.5,3.2C211.5,43.1,209.4,43.5,207.3,43.5z M219.8,37.5l-4.8-1V28h-6.6c-0.7,0-1.3-0.2-1.8-0.6
	c-0.5-0.4-0.7-0.9-0.7-1.6c0-0.6,0.2-1.2,0.7-1.6c0.5-0.4,1.1-0.6,1.8-0.6h9c0.7,0,1.3,0.2,1.8,0.7c0.4,0.4,0.7,1,0.7,1.8V37.5z
	 M230.3,43c-0.7,0-1.3-0.2-1.8-0.7s-0.7-1.1-0.7-1.8V8c0-0.7,0.2-1.3,0.7-1.8c0.5-0.5,1.1-0.7,1.8-0.7h8.6c2.4,0,4.5,0.5,6.4,1.5
	c1.9,1,3.3,2.4,4.3,4.1c1.1,1.8,1.6,3.8,1.6,6.1c0,2.2-0.5,4.1-1.6,5.8c-1,1.7-2.5,3-4.3,4c-1.9,1-4,1.4-6.4,1.4h-6.1v12
	c0,0.7-0.2,1.3-0.7,1.8C231.6,42.8,231,43,230.3,43z M250.2,43c-0.4,0-0.9-0.1-1.2-0.3c-0.4-0.2-0.7-0.5-0.9-0.9l-8.6-13.9l4.8-1.4
	l7.9,12.7c0.6,0.9,0.7,1.8,0.2,2.6C251.9,42.6,251.2,43,250.2,43z M232.8,23.9h6.1c1.5,0,2.8-0.3,3.9-0.8c1.1-0.6,2-1.4,2.6-2.4
	c0.6-1,1-2.2,1-3.5c0-1.4-0.3-2.7-1-3.7s-1.5-1.9-2.6-2.5c-1.1-0.6-2.4-0.9-3.9-0.9h-6.1V23.9z M256.6,43c-0.9,0-1.6-0.4-2.1-1.2
	c-0.5-0.8-0.5-1.6-0.1-2.4l13.5-32.2c0.5-1.1,1.3-1.7,2.4-1.7c1.2,0,1.9,0.6,2.4,1.7l13.5,32.3c0.4,0.9,0.3,1.7-0.2,2.4
	c-0.4,0.7-1.1,1.1-2.1,1.1c-0.5,0-0.9-0.1-1.4-0.4c-0.4-0.3-0.7-0.7-0.9-1.2l-11.9-29.6h1.3l-12.1,29.6c-0.2,0.5-0.6,0.9-1,1.2
	C257.5,42.9,257.1,43,256.6,43z M259.2,34.7l1.9-4.1h18.8l1.9,4.1H259.2z M294.4,43c-0.7,0-1.3-0.2-1.8-0.7
	c-0.5-0.5-0.7-1.1-0.7-1.8V8c0-0.7,0.2-1.3,0.7-1.8c0.5-0.5,1.1-0.7,1.8-0.7h9.6c2.4,0,4.5,0.5,6.4,1.6c1.9,1.1,3.3,2.5,4.3,4.4
	c1.1,1.9,1.6,4,1.6,6.4c0,2.3-0.5,4.4-1.6,6.2c-1,1.8-2.5,3.2-4.3,4.3c-1.9,1-4,1.5-6.4,1.5h-7.1v10.5c0,0.7-0.2,1.3-0.7,1.8
	C295.7,42.8,295.1,43,294.4,43z M296.9,25.4h7.1c1.5,0,2.8-0.3,3.9-1c1.1-0.6,2-1.5,2.6-2.6c0.6-1.1,1-2.4,1-3.8c0-1.5-0.3-2.9-1-4
	c-0.6-1.2-1.5-2.1-2.6-2.8c-1.1-0.7-2.4-1-3.9-1h-7.1V25.4z M324.3,43c-0.7,0-1.3-0.2-1.8-0.7c-0.5-0.5-0.7-1.1-0.7-1.8V8
	c0-0.7,0.2-1.3,0.7-1.8c0.5-0.5,1.1-0.7,1.8-0.7c0.7,0,1.3,0.2,1.8,0.7c0.5,0.4,0.7,1,0.7,1.8v13.8H349V8c0-0.7,0.2-1.3,0.7-1.8
	c0.5-0.5,1.1-0.7,1.8-0.7c0.7,0,1.3,0.2,1.8,0.7c0.4,0.4,0.7,1,0.7,1.8v32.5c0,0.7-0.2,1.3-0.7,1.8s-1,0.7-1.8,0.7
	c-0.7,0-1.3-0.2-1.8-0.7c-0.5-0.5-0.7-1.1-0.7-1.8V26.2h-22.3v14.3c0,0.7-0.2,1.3-0.7,1.8C325.6,42.8,325,43,324.3,43z M374.8,43
	c-0.7,0-1.2-0.2-1.7-0.7c-0.5-0.5-0.7-1.1-0.7-1.8V29.3L359.5,9.4c-0.4-0.7-0.6-1.3-0.5-1.9c0.1-0.6,0.4-1.1,0.8-1.4
	c0.5-0.4,1-0.6,1.6-0.6c0.5,0,1,0.1,1.3,0.4c0.3,0.2,0.6,0.6,0.9,1l12.2,19.3H374l12.4-19.5c0.3-0.4,0.6-0.7,0.9-0.9
	c0.4-0.2,0.8-0.3,1.3-0.3c0.6,0,1.1,0.2,1.4,0.6c0.4,0.4,0.6,0.9,0.7,1.5c0.1,0.6-0.1,1.2-0.5,1.8l-12.9,19.9v11.2
	c0,0.7-0.2,1.3-0.7,1.8C376.1,42.8,375.5,43,374.8,43z"/>
<circle class="st1" cx="247" cy="92" r="8"/>
</svg>
