<svg width="497" height="528" viewBox="0 0 497 528" fill="none" xmlns="http://www.w3.org/2000/svg">
<path d="M43.2 97.96C38.016 97.96 33.152 97 28.608 95.08C24.128 93.096 20.192 90.376 16.8 86.92C13.472 83.4 10.848 79.304 8.928 74.632C7.072 69.96 6.144 64.904 6.144 59.464C6.144 54.088 7.072 49.096 8.928 44.488C10.848 39.816 13.472 35.752 16.8 32.296C20.192 28.776 24.128 26.024 28.608 24.04C33.088 22.056 37.952 21.064 43.2 21.064C48.128 21.064 52.352 21.704 55.872 22.984C59.456 24.264 63.04 26.376 66.624 29.32C67.136 29.704 67.52 30.12 67.776 30.568C68.096 30.952 68.288 31.368 68.352 31.816C68.48 32.2 68.544 32.68 68.544 33.256C68.544 34.472 68.096 35.496 67.2 36.328C66.368 37.096 65.344 37.544 64.128 37.672C62.912 37.736 61.728 37.32 60.576 36.424C58.208 34.376 55.744 32.808 53.184 31.72C50.688 30.632 47.36 30.088 43.2 30.088C39.424 30.088 35.872 30.856 32.544 32.392C29.216 33.928 26.272 36.04 23.712 38.728C21.216 41.416 19.264 44.552 17.856 48.136C16.448 51.656 15.744 55.432 15.744 59.464C15.744 63.56 16.448 67.4 17.856 70.984C19.264 74.504 21.216 77.608 23.712 80.296C26.272 82.984 29.216 85.096 32.544 86.632C35.872 88.104 39.424 88.84 43.2 88.84C46.464 88.84 49.536 88.296 52.416 87.208C55.36 86.056 58.176 84.488 60.864 82.504C62.016 81.672 63.136 81.32 64.224 81.448C65.376 81.512 66.336 81.96 67.104 82.792C67.872 83.56 68.256 84.648 68.256 86.056C68.256 86.696 68.128 87.336 67.872 87.976C67.616 88.552 67.232 89.096 66.72 89.608C63.264 92.36 59.552 94.44 55.584 95.848C51.68 97.256 47.552 97.96 43.2 97.96ZM89.217 97C87.809 97 86.625 96.52 85.665 95.56C84.705 94.6 84.225 93.416 84.225 92.008V27.016C84.225 25.544 84.705 24.36 85.665 23.464C86.625 22.504 87.809 22.024 89.217 22.024H106.497C111.297 22.024 115.553 23.048 119.265 25.096C122.977 27.08 125.857 29.832 127.905 33.352C130.017 36.872 131.073 40.968 131.073 45.64C131.073 49.992 130.017 53.864 127.905 57.256C125.857 60.648 122.977 63.304 119.265 65.224C115.553 67.144 111.297 68.104 106.497 68.104H94.209V92.008C94.209 93.416 93.729 94.6 92.769 95.56C91.873 96.52 90.689 97 89.217 97ZM129.057 97C128.161 97 127.329 96.808 126.561 96.424C125.857 96.04 125.249 95.432 124.737 94.6L107.457 66.76L117.153 63.976L132.897 89.32C134.049 91.176 134.209 92.936 133.377 94.6C132.545 96.2 131.105 97 129.057 97ZM94.209 58.888H106.497C109.441 58.888 112.033 58.344 114.273 57.256C116.513 56.104 118.273 54.536 119.553 52.552C120.833 50.504 121.473 48.2 121.473 45.64C121.473 42.824 120.833 40.328 119.553 38.152C118.273 35.976 116.513 34.28 114.273 33.064C112.033 31.848 109.441 31.24 106.497 31.24H94.209V58.888ZM149.873 97C148.465 97 147.281 96.52 146.321 95.56C145.361 94.6 144.881 93.416 144.881 92.008V27.016C144.881 25.544 145.361 24.36 146.321 23.464C147.281 22.504 148.465 22.024 149.873 22.024H193.265C194.737 22.024 195.921 22.472 196.817 23.368C197.713 24.2 198.161 25.32 198.161 26.728C198.161 28.072 197.713 29.16 196.817 29.992C195.921 30.824 194.737 31.24 193.265 31.24H154.865V54.568H182.417C183.889 54.568 185.073 55.016 185.969 55.912C186.865 56.744 187.313 57.832 187.313 59.176C187.313 60.52 186.865 61.64 185.969 62.536C185.073 63.368 183.889 63.784 182.417 63.784H154.865V87.784H193.265C194.737 87.784 195.921 88.2 196.817 89.032C197.713 89.864 198.161 90.952 198.161 92.296C198.161 93.704 197.713 94.856 196.817 95.752C195.921 96.584 194.737 97 193.265 97H149.873ZM209.124 97C207.332 97 205.956 96.232 204.996 94.696C204.036 93.16 203.94 91.528 204.708 89.8L231.684 25.384C232.644 23.144 234.212 22.024 236.388 22.024C238.692 22.024 240.26 23.144 241.092 25.384L268.164 89.992C268.868 91.784 268.74 93.416 267.78 94.888C266.884 96.296 265.508 97 263.652 97C262.692 97 261.764 96.744 260.868 96.232C260.036 95.656 259.428 94.888 259.044 93.928L235.236 34.792H237.924L213.732 93.928C213.284 94.952 212.612 95.72 211.716 96.232C210.884 96.744 210.02 97 209.124 97ZM214.212 80.488L218.052 72.232H255.684L259.524 80.488H214.212ZM294.089 97C292.681 97 291.497 96.52 290.536 95.56C289.577 94.6 289.097 93.416 289.097 92.008V22.024H299.081V92.008C299.081 93.416 298.601 94.6 297.641 95.56C296.681 96.52 295.497 97 294.089 97ZM268.361 31.24C267.017 31.24 265.897 30.824 265.001 29.992C264.169 29.096 263.753 27.976 263.753 26.632C263.753 25.288 264.169 24.2 265.001 23.368C265.897 22.472 267.017 22.024 268.361 22.024H319.721C321.065 22.024 322.153 22.472 322.985 23.368C323.881 24.2 324.329 25.288 324.329 26.632C324.329 27.976 323.881 29.096 322.985 29.992C322.153 30.824 321.065 31.24 319.721 31.24H268.361ZM340.373 97C338.965 97 337.781 96.52 336.821 95.56C335.861 94.6 335.381 93.416 335.381 92.008V27.016C335.381 25.544 335.861 24.36 336.821 23.464C337.781 22.504 338.965 22.024 340.373 22.024H383.765C385.237 22.024 386.421 22.472 387.317 23.368C388.213 24.2 388.661 25.32 388.661 26.728C388.661 28.072 388.213 29.16 387.317 29.992C386.421 30.824 385.237 31.24 383.765 31.24H345.365V54.568H372.917C374.389 54.568 375.573 55.016 376.469 55.912C377.365 56.744 377.813 57.832 377.813 59.176C377.813 60.52 377.365 61.64 376.469 62.536C375.573 63.368 374.389 63.784 372.917 63.784H345.365V87.784H383.765C385.237 87.784 386.421 88.2 387.317 89.032C388.213 89.864 388.661 90.952 388.661 92.296C388.661 93.704 388.213 94.856 387.317 95.752C386.421 96.584 385.237 97 383.765 97H340.373ZM407.592 97C406.184 97 405 96.52 404.04 95.56C403.08 94.6 402.6 93.416 402.6 92.008V27.016C402.6 25.544 403.08 24.36 404.04 23.464C405 22.504 406.184 22.024 407.592 22.024H424.968C430.472 22.024 435.464 22.952 439.944 24.808C444.488 26.6 448.424 29.192 451.752 32.584C455.08 35.912 457.64 39.848 459.432 44.392C461.224 48.936 462.12 53.96 462.12 59.464C462.12 64.968 461.224 70.024 459.432 74.632C457.64 79.176 455.08 83.144 451.752 86.536C448.424 89.864 444.488 92.456 439.944 94.312C435.464 96.104 430.472 97 424.968 97H407.592ZM412.584 88.168H424.968C430.344 88.168 435.08 86.952 439.176 84.52C443.336 82.024 446.6 78.632 448.968 74.344C451.336 69.992 452.52 65.032 452.52 59.464C452.52 53.832 451.336 48.872 448.968 44.584C446.6 40.296 443.336 36.936 439.176 34.504C435.08 32.072 430.344 30.856 424.968 30.856H412.584V88.168ZM31.2 229C30.368 229 29.664 228.744 29.088 228.232C28.576 227.656 28.32 226.952 28.32 226.12V154.024H34.08V226.12C34.08 226.952 33.792 227.656 33.216 228.232C32.704 228.744 32.032 229 31.2 229ZM4.032 159.208C3.264 159.208 2.624 158.984 2.112 158.536C1.664 158.024 1.44 157.384 1.44 156.616C1.44 155.848 1.664 155.24 2.112 154.792C2.624 154.28 3.264 154.024 4.032 154.024H58.368C59.136 154.024 59.744 154.28 60.192 154.792C60.704 155.24 60.96 155.848 60.96 156.616C60.96 157.384 60.704 158.024 60.192 158.536C59.744 158.984 59.136 159.208 58.368 159.208H4.032ZM101.912 229.96C96.4083 229.96 91.3203 229 86.6483 227.08C81.9763 225.16 77.8803 222.472 74.3603 219.016C70.9043 215.496 68.2163 211.4 66.2963 206.728C64.3763 202.056 63.4163 196.968 63.4163 191.464C63.4163 185.96 64.3763 180.904 66.2963 176.296C68.2163 171.624 70.9043 167.56 74.3603 164.104C77.8803 160.584 81.9763 157.864 86.6483 155.944C91.3203 154.024 96.4083 153.064 101.912 153.064C107.416 153.064 112.472 154.024 117.08 155.944C121.752 157.864 125.816 160.584 129.272 164.104C132.792 167.56 135.512 171.624 137.432 176.296C139.352 180.904 140.312 185.96 140.312 191.464C140.312 196.968 139.352 202.056 137.432 206.728C135.512 211.4 132.792 215.496 129.272 219.016C125.816 222.472 121.752 225.16 117.08 227.08C112.472 229 107.416 229.96 101.912 229.96ZM101.912 224.2C106.52 224.2 110.808 223.4 114.776 221.8C118.744 220.136 122.2 217.832 125.144 214.888C128.152 211.88 130.456 208.392 132.056 204.424C133.72 200.456 134.552 196.136 134.552 191.464C134.552 186.856 133.72 182.568 132.056 178.6C130.456 174.632 128.152 171.176 125.144 168.232C122.2 165.224 118.744 162.92 114.776 161.32C110.808 159.656 106.52 158.824 101.912 158.824C97.2403 158.824 92.9203 159.656 88.9523 161.32C84.9843 162.92 81.4963 165.224 78.4883 168.232C75.5443 171.176 73.2403 174.632 71.5763 178.6C69.9763 182.568 69.1763 186.856 69.1763 191.464C69.1763 196.136 69.9763 200.456 71.5763 204.424C73.2403 208.392 75.5443 211.88 78.4883 214.888C81.4963 217.832 84.9843 220.136 88.9523 221.8C92.9203 223.4 97.2403 224.2 101.912 224.2ZM43.2 361.96C38.016 361.96 33.152 361 28.608 359.08C24.128 357.096 20.192 354.376 16.8 350.92C13.472 347.4 10.848 343.304 8.928 338.632C7.072 333.96 6.144 328.904 6.144 323.464C6.144 318.088 7.072 313.096 8.928 308.488C10.848 303.816 13.472 299.752 16.8 296.296C20.192 292.776 24.128 290.024 28.608 288.04C33.088 286.056 37.952 285.064 43.2 285.064C48.128 285.064 52.352 285.704 55.872 286.984C59.456 288.264 63.04 290.376 66.624 293.32C67.136 293.704 67.52 294.12 67.776 294.568C68.096 294.952 68.288 295.368 68.352 295.816C68.48 296.2 68.544 296.68 68.544 297.256C68.544 298.472 68.096 299.496 67.2 300.328C66.368 301.096 65.344 301.544 64.128 301.672C62.912 301.736 61.728 301.32 60.576 300.424C58.208 298.376 55.744 296.808 53.184 295.72C50.688 294.632 47.36 294.088 43.2 294.088C39.424 294.088 35.872 294.856 32.544 296.392C29.216 297.928 26.272 300.04 23.712 302.728C21.216 305.416 19.264 308.552 17.856 312.136C16.448 315.656 15.744 319.432 15.744 323.464C15.744 327.56 16.448 331.4 17.856 334.984C19.264 338.504 21.216 341.608 23.712 344.296C26.272 346.984 29.216 349.096 32.544 350.632C35.872 352.104 39.424 352.84 43.2 352.84C46.464 352.84 49.536 352.296 52.416 351.208C55.36 350.056 58.176 348.488 60.864 346.504C62.016 345.672 63.136 345.32 64.224 345.448C65.376 345.512 66.336 345.96 67.104 346.792C67.872 347.56 68.256 348.648 68.256 350.056C68.256 350.696 68.128 351.336 67.872 351.976C67.616 352.552 67.232 353.096 66.72 353.608C63.264 356.36 59.552 358.44 55.584 359.848C51.68 361.256 47.552 361.96 43.2 361.96ZM89.217 361C87.809 361 86.625 360.52 85.665 359.56C84.705 358.6 84.225 357.416 84.225 356.008V291.016C84.225 289.544 84.705 288.36 85.665 287.464C86.625 286.504 87.809 286.024 89.217 286.024H106.497C111.297 286.024 115.553 287.048 119.265 289.096C122.977 291.08 125.857 293.832 127.905 297.352C130.017 300.872 131.073 304.968 131.073 309.64C131.073 313.992 130.017 317.864 127.905 321.256C125.857 324.648 122.977 327.304 119.265 329.224C115.553 331.144 111.297 332.104 106.497 332.104H94.209V356.008C94.209 357.416 93.729 358.6 92.769 359.56C91.873 360.52 90.689 361 89.217 361ZM129.057 361C128.161 361 127.329 360.808 126.561 360.424C125.857 360.04 125.249 359.432 124.737 358.6L107.457 330.76L117.153 327.976L132.897 353.32C134.049 355.176 134.209 356.936 133.377 358.6C132.545 360.2 131.105 361 129.057 361ZM94.209 322.888H106.497C109.441 322.888 112.033 322.344 114.273 321.256C116.513 320.104 118.273 318.536 119.553 316.552C120.833 314.504 121.473 312.2 121.473 309.64C121.473 306.824 120.833 304.328 119.553 302.152C118.273 299.976 116.513 298.28 114.273 297.064C112.033 295.848 109.441 295.24 106.497 295.24H94.209V322.888ZM149.873 361C148.465 361 147.281 360.52 146.321 359.56C145.361 358.6 144.881 357.416 144.881 356.008V291.016C144.881 289.544 145.361 288.36 146.321 287.464C147.281 286.504 148.465 286.024 149.873 286.024H193.265C194.737 286.024 195.921 286.472 196.817 287.368C197.713 288.2 198.161 289.32 198.161 290.728C198.161 292.072 197.713 293.16 196.817 293.992C195.921 294.824 194.737 295.24 193.265 295.24H154.865V318.568H182.417C183.889 318.568 185.073 319.016 185.969 319.912C186.865 320.744 187.313 321.832 187.313 323.176C187.313 324.52 186.865 325.64 185.969 326.536C185.073 327.368 183.889 327.784 182.417 327.784H154.865V351.784H193.265C194.737 351.784 195.921 352.2 196.817 353.032C197.713 353.864 198.161 354.952 198.161 356.296C198.161 357.704 197.713 358.856 196.817 359.752C195.921 360.584 194.737 361 193.265 361H149.873ZM209.124 361C207.332 361 205.956 360.232 204.996 358.696C204.036 357.16 203.94 355.528 204.708 353.8L231.684 289.384C232.644 287.144 234.212 286.024 236.388 286.024C238.692 286.024 240.26 287.144 241.092 289.384L268.164 353.992C268.868 355.784 268.74 357.416 267.78 358.888C266.884 360.296 265.508 361 263.652 361C262.692 361 261.764 360.744 260.868 360.232C260.036 359.656 259.428 358.888 259.044 357.928L235.236 298.792H237.924L213.732 357.928C213.284 358.952 212.612 359.72 211.716 360.232C210.884 360.744 210.02 361 209.124 361ZM214.212 344.488L218.052 336.232H255.684L259.524 344.488H214.212ZM294.089 361C292.681 361 291.497 360.52 290.536 359.56C289.577 358.6 289.097 357.416 289.097 356.008V286.024H299.081V356.008C299.081 357.416 298.601 358.6 297.641 359.56C296.681 360.52 295.497 361 294.089 361ZM268.361 295.24C267.017 295.24 265.897 294.824 265.001 293.992C264.169 293.096 263.753 291.976 263.753 290.632C263.753 289.288 264.169 288.2 265.001 287.368C265.897 286.472 267.017 286.024 268.361 286.024H319.721C321.065 286.024 322.153 286.472 322.985 287.368C323.881 288.2 324.329 289.288 324.329 290.632C324.329 291.976 323.881 293.096 322.985 293.992C322.153 294.824 321.065 295.24 319.721 295.24H268.361ZM340.373 361C338.965 361 337.781 360.52 336.821 359.56C335.861 358.6 335.381 357.416 335.381 356.008V291.016C335.381 289.544 335.861 288.36 336.821 287.464C337.781 286.504 338.965 286.024 340.373 286.024H383.765C385.237 286.024 386.421 286.472 387.317 287.368C388.213 288.2 388.661 289.32 388.661 290.728C388.661 292.072 388.213 293.16 387.317 293.992C386.421 294.824 385.237 295.24 383.765 295.24H345.365V318.568H372.917C374.389 318.568 375.573 319.016 376.469 319.912C377.365 320.744 377.813 321.832 377.813 323.176C377.813 324.52 377.365 325.64 376.469 326.536C375.573 327.368 374.389 327.784 372.917 327.784H345.365V351.784H383.765C385.237 351.784 386.421 352.2 387.317 353.032C388.213 353.864 388.661 354.952 388.661 356.296C388.661 357.704 388.213 358.856 387.317 359.752C386.421 360.584 385.237 361 383.765 361H340.373Z" fill="white"/>
<circle cx="102" cy="191" r="10" fill="#EA6150"/>
</svg>
